<?xml version="1.0" encoding="utf-8" standalone="no"?>
<!DOCTYPE svg PUBLIC "-//W3C//DTD SVG 1.1//EN"
  "http://www.w3.org/Graphics/SVG/1.1/DTD/svg11.dtd">
<svg xmlns:xlink="http://www.w3.org/1999/xlink" width="349.2pt" height="374.841924pt" viewBox="0 0 349.2 374.841924" xmlns="http://www.w3.org/2000/svg" version="1.1">
 <metadata>
  <rdf:RDF xmlns:dc="http://purl.org/dc/elements/1.1/" xmlns:cc="http://creativecommons.org/ns#" xmlns:rdf="http://www.w3.org/1999/02/22-rdf-syntax-ns#">
   <cc:Work>
    <dc:type rdf:resource="http://purl.org/dc/dcmitype/StillImage"/>
    <dc:date>2025-09-17T05:16:16.877618</dc:date>
    <dc:format>image/svg+xml</dc:format>
    <dc:creator>
     <cc:Agent>
      <dc:title>Matplotlib v3.6.3, https://matplotlib.org/</dc:title>
     </cc:Agent>
    </dc:creator>
   </cc:Work>
  </rdf:RDF>
 </metadata>
 <defs>
  <style type="text/css">*{stroke-linejoin: round; stroke-linecap: butt}</style>
 </defs>
 <g id="figure_1">
  <g id="patch_1">
   <path d="M 0 374.841924 
L 349.2 374.841924 
L 349.2 -0 
L 0 -0 
z
" style="fill: #ffffff"/>
  </g>
  <g id="axes_1">
   <g id="patch_2">
    <path d="M 42.806709 127.404612 
L 42.264334 128.351862 
L 41.728768 129.302977 
L 41.200037 130.257909 
L 40.678169 131.216609 
L 40.163191 132.179028 
L 39.655129 133.145115 
L 39.154009 134.114822 
L 38.659858 135.088098 
L 38.1727 136.064893 
L 37.69256 137.045157 
L 37.219464 138.02884 
L 36.753436 139.015891 
L 36.294499 140.006259 
L 35.842678 140.999893 
L 35.397995 141.996742 
L 34.960473 142.996756 
L 34.530136 143.999881 
L 34.107004 145.006068 
L 33.6911 146.015263 
L 33.282445 147.027416 
L 32.881061 148.042474 
L 32.486967 149.060384 
L 32.100184 150.081095 
L 31.720733 151.104554 
L 31.348632 152.130708 
L 30.983901 153.159505 
L 30.626558 154.190891 
L 30.276622 155.224814 
L 29.934111 156.26122 
L 29.599042 157.300057 
L 29.271433 158.341269 
L 28.9513 159.384805 
L 28.638661 160.43061 
L 28.33353 161.478631 
L 28.035925 162.528813 
L 27.745859 163.581103 
L 27.463349 164.635446 
L 27.188408 165.691788 
L 26.921051 166.750076 
L 26.661291 167.810253 
L 26.409143 168.872267 
L 26.164618 169.936062 
L 25.927729 171.001583 
L 25.698489 172.068776 
L 25.476909 173.137585 
L 25.263001 174.207957 
L 25.056776 175.279835 
L 24.858244 176.353165 
L 24.667416 177.427891 
L 24.484301 178.503958 
L 24.308909 179.581311 
L 24.141249 180.659894 
L 23.98133 181.739652 
L 23.829159 182.82053 
L 23.684744 183.902471 
L 23.548094 184.985419 
L 23.419214 186.069321 
L 23.298113 187.154118 
L 23.184795 188.239757 
L 23.079266 189.32618 
L 22.981533 190.413332 
L 22.8916 191.501157 
L 22.809472 192.5896 
L 22.735153 193.678603 
L 22.668646 194.768112 
L 22.609956 195.858069 
L 22.559085 196.948419 
L 22.516036 198.039106 
L 22.480811 199.130074 
L 22.453412 200.221267 
L 22.43384 201.312628 
L 22.422096 202.404101 
L 22.418182 203.49563 
L 22.422096 204.58716 
L 22.43384 205.678633 
L 22.453412 206.769994 
L 22.480811 207.861186 
L 22.516036 208.952154 
L 22.559085 210.042841 
L 22.609956 211.133192 
L 22.668646 212.223149 
L 22.735153 213.312657 
L 22.809472 214.401661 
L 22.8916 215.490103 
L 22.981533 216.577928 
L 23.079266 217.665081 
L 23.184795 218.751504 
L 23.298113 219.837142 
L 23.419214 220.92194 
L 23.548094 222.005841 
L 23.684744 223.08879 
L 23.829159 224.170731 
L 23.98133 225.251608 
L 24.141249 226.331366 
L 24.308909 227.40995 
L 24.484301 228.487302 
L 24.667416 229.56337 
L 24.858244 230.638096 
L 25.056776 231.711426 
L 25.263001 232.783304 
L 25.476909 233.853675 
L 25.698489 234.922485 
L 25.927729 235.989678 
L 26.164618 237.055199 
L 26.409143 238.118994 
L 26.661291 239.181007 
L 26.921051 240.241185 
L 27.188408 241.299472 
L 27.463349 242.355815 
L 27.745859 243.410158 
L 28.035925 244.462448 
L 28.33353 245.51263 
L 28.638661 246.56065 
L 28.9513 247.606455 
L 29.271433 248.649991 
L 29.599042 249.691204 
L 29.934111 250.73004 
L 30.276622 251.766446 
L 30.626558 252.800369 
L 30.983901 253.831755 
L 31.348632 254.860552 
L 31.720733 255.886706 
L 32.100184 256.910165 
L 32.486967 257.930876 
L 32.881061 258.948787 
L 33.282445 259.963845 
L 33.6911 260.975997 
L 34.107004 261.985193 
L 34.530136 262.991379 
L 34.960473 263.994505 
L 35.397995 264.994518 
L 35.842678 265.991368 
L 36.294499 266.985002 
L 36.753436 267.97537 
L 37.219464 268.962421 
L 37.69256 269.946104 
L 38.1727 270.926368 
L 38.659858 271.903163 
L 39.154009 272.876439 
L 39.655129 273.846146 
L 40.163191 274.812233 
L 40.678169 275.774651 
L 41.200037 276.733351 
L 41.728768 277.688283 
L 42.264334 278.639399 
L 42.806709 279.586648 
L 43.355863 280.529983 
L 43.91177 281.469355 
L 44.4744 282.404715 
L 45.043725 283.336016 
L 45.619715 284.263209 
L 46.20234 285.186248 
L 46.79157 286.105083 
L 47.387376 287.019669 
L 47.989727 287.929958 
L 48.598591 288.835903 
L 49.213937 289.737457 
L 49.835734 290.634575 
L 50.46395 291.52721 
L 51.098551 292.415316 
L 51.739507 293.298847 
L 52.386783 294.177759 
L 53.040346 295.052005 
L 53.700164 295.921541 
L 54.366201 296.786322 
L 55.038423 297.646304 
L 55.716797 298.501442 
L 56.401286 299.351692 
L 57.091857 300.197011 
L 57.788472 301.037356 
L 58.491097 301.872682 
L 59.199696 302.702947 
L 59.914231 303.528108 
L 60.634667 304.348123 
L 61.360965 305.162949 
L 62.093089 305.972545 
L 62.831002 306.776869 
L 63.574664 307.57588 
L 64.324038 308.369536 
L 65.079085 309.157797 
L 65.839767 309.940622 
L 66.606044 310.717971 
L 67.377876 311.489804 
L 68.155225 312.256081 
L 68.93805 313.016763 
L 69.726311 313.77181 
L 70.519968 314.521184 
L 71.318978 315.264846 
L 72.123303 316.002758 
L 72.932899 316.734883 
L 73.747725 317.461181 
L 74.56774 318.181617 
L 75.392901 318.896152 
L 76.223166 319.60475 
L 77.058492 320.307375 
L 77.898836 321.003991 
L 78.744155 321.694562 
L 79.594406 322.379051 
L 80.449544 323.057425 
L 81.309526 323.729647 
L 82.174307 324.395684 
L 83.043843 325.055501 
L 83.918089 325.709065 
L 84.797001 326.356341 
L 85.680532 326.997296 
L 86.568638 327.631898 
L 87.461273 328.260114 
L 88.358391 328.881911 
L 89.259945 329.497257 
L 90.16589 330.106121 
L 91.076179 330.708471 
L 91.990765 331.304277 
L 92.9096 331.893508 
L 93.832638 332.476133 
L 94.759832 333.052123 
L 95.691133 333.621447 
L 96.626493 334.184078 
L 97.565865 334.739984 
L 98.5092 335.289139 
L 119.814685 298.386957 
L 119.135484 297.991565 
L 118.459136 297.591312 
L 117.785676 297.186219 
L 117.11514 296.776305 
L 116.447561 296.361592 
L 115.782973 295.942102 
L 115.121411 295.517856 
L 114.46291 295.088876 
L 113.807502 294.655184 
L 113.155221 294.216801 
L 112.506102 293.773752 
L 111.860177 293.326058 
L 111.21748 292.873743 
L 110.578044 292.41683 
L 109.941901 291.955342 
L 109.309085 291.489303 
L 108.679628 291.018737 
L 108.053562 290.543669 
L 107.430919 290.064122 
L 106.811733 289.580122 
L 106.196033 289.091693 
L 105.583853 288.598861 
L 104.975223 288.10165 
L 104.370175 287.600087 
L 103.768741 287.094197 
L 103.17095 286.584006 
L 102.576834 286.06954 
L 101.986423 285.550827 
L 101.399748 285.027892 
L 100.816839 284.500763 
L 100.237725 283.969466 
L 99.662438 283.434029 
L 99.091005 282.89448 
L 98.523457 282.350846 
L 97.959823 281.803155 
L 97.400132 281.251435 
L 96.844412 280.695716 
L 96.292693 280.136025 
L 95.745002 279.572391 
L 95.201368 279.004843 
L 94.661819 278.43341 
L 94.126382 277.858122 
L 93.595085 277.279009 
L 93.067956 276.6961 
L 92.545021 276.109425 
L 92.026307 275.519014 
L 91.511842 274.924898 
L 91.001651 274.327107 
L 90.495761 273.725672 
L 89.994198 273.120625 
L 89.496987 272.511995 
L 89.004155 271.899815 
L 88.515726 271.284115 
L 88.031725 270.664928 
L 87.552179 270.042286 
L 87.07711 269.41622 
L 86.606545 268.786763 
L 86.140506 268.153946 
L 85.679018 267.517804 
L 85.222105 266.878368 
L 84.769789 266.23567 
L 84.322096 265.589746 
L 83.879046 264.940626 
L 83.440664 264.288346 
L 83.006972 263.632938 
L 82.577992 262.974436 
L 82.153745 262.312875 
L 81.734255 261.648287 
L 81.319543 260.980708 
L 80.909629 260.310171 
L 80.504535 259.636712 
L 80.104283 258.960364 
L 79.708891 258.281163 
L 79.318381 257.599144 
L 78.932774 256.914341 
L 78.552087 256.226789 
L 78.176342 255.536525 
L 77.805558 254.843584 
L 77.439754 254.148001 
L 77.078947 253.449813 
L 76.723158 252.749054 
L 76.372405 252.045761 
L 76.026704 251.339971 
L 75.686075 250.631719 
L 75.350535 249.921043 
L 75.0201 249.207978 
L 74.694789 248.492561 
L 74.374617 247.77483 
L 74.059602 247.05482 
L 73.749759 246.33257 
L 73.445104 245.608115 
L 73.145653 244.881495 
L 72.851421 244.152745 
L 72.562425 243.421903 
L 72.278677 242.689008 
L 72.000194 241.954096 
L 71.726989 241.217205 
L 71.459076 240.478374 
L 71.196469 239.73764 
L 70.939182 238.995042 
L 70.687229 238.250618 
L 70.44062 237.504405 
L 70.199371 236.756443 
L 69.963492 236.00677 
L 69.732997 235.255424 
L 69.507897 234.502445 
L 69.288203 233.74787 
L 69.073927 232.991739 
L 68.86508 232.23409 
L 68.661672 231.474963 
L 68.463715 230.714396 
L 68.271218 229.95243 
L 68.084191 229.189102 
L 67.902644 228.424452 
L 67.726586 227.65852 
L 67.556026 226.891345 
L 67.390973 226.122966 
L 67.231435 225.353423 
L 67.077422 224.582755 
L 66.92894 223.811003 
L 66.785997 223.038205 
L 66.6486 222.264403 
L 66.516758 221.489634 
L 66.390476 220.71394 
L 66.26976 219.93736 
L 66.154618 219.159934 
L 66.045055 218.381703 
L 65.941077 217.602705 
L 65.842688 216.822982 
L 65.749895 216.042573 
L 65.662702 215.261519 
L 65.581113 214.479859 
L 65.505133 213.697634 
L 65.434765 212.914885 
L 65.370013 212.131651 
L 65.310881 211.347972 
L 65.257371 210.56389 
L 65.209486 209.779444 
L 65.167229 208.994674 
L 65.130602 208.209622 
L 65.099607 207.424327 
L 65.074245 206.638831 
L 65.054517 205.853172 
L 65.040426 205.067392 
L 65.03197 204.281531 
L 65.029152 203.49563 
L 65.03197 202.709729 
L 65.040426 201.923868 
L 65.054517 201.138089 
L 65.074245 200.35243 
L 65.099607 199.566933 
L 65.130602 198.781638 
L 65.167229 197.996586 
L 65.209486 197.211817 
L 65.257371 196.427371 
L 65.310881 195.643288 
L 65.370013 194.85961 
L 65.434765 194.076376 
L 65.505133 193.293626 
L 65.581113 192.511401 
L 65.662702 191.729742 
L 65.749895 190.948687 
L 65.842688 190.168279 
L 65.941077 189.388555 
L 66.045055 188.609558 
L 66.154618 187.831326 
L 66.26976 187.0539 
L 66.390476 186.27732 
L 66.516758 185.501626 
L 66.6486 184.726858 
L 66.785997 183.953055 
L 66.92894 183.180258 
L 67.077422 182.408505 
L 67.231435 181.637838 
L 67.390973 180.868295 
L 67.556026 180.099916 
L 67.726586 179.332741 
L 67.902644 178.566809 
L 68.084191 177.802159 
L 68.271218 177.038831 
L 68.463715 176.276864 
L 68.661672 175.516298 
L 68.86508 174.757171 
L 69.073927 173.999522 
L 69.288203 173.243391 
L 69.507897 172.488816 
L 69.732997 171.735836 
L 69.963492 170.98449 
L 70.199371 170.234817 
L 70.44062 169.486855 
L 70.687229 168.740643 
L 70.939182 167.996218 
L 71.196469 167.25362 
L 71.459076 166.512886 
L 71.726989 165.774055 
L 72.000194 165.037165 
L 72.278677 164.302253 
L 72.562425 163.569357 
L 72.851421 162.838516 
L 73.145653 162.109766 
L 73.445104 161.383145 
L 73.749759 160.658691 
L 74.059602 159.93644 
L 74.374617 159.216431 
L 74.694789 158.498699 
L 75.0201 157.783283 
L 75.350535 157.070218 
L 75.686075 156.359541 
L 76.026704 155.651289 
L 76.372405 154.945499 
L 76.723158 154.242207 
L 77.078947 153.541448 
L 77.439754 152.843259 
L 77.805558 152.147676 
L 78.176342 151.454735 
L 78.552087 150.764471 
L 78.932774 150.07692 
L 79.318381 149.392117 
L 79.708891 148.710097 
z
" clip-path="url(#p3189ff816c)" style="fill: #f87171"/>
   </g>
   <g id="patch_3">
    <path d="M 98.5092 335.289139 
L 99.456449 335.831514 
L 100.407564 336.36708 
L 101.362497 336.895811 
L 102.321196 337.417679 
L 103.283615 337.932657 
L 104.249702 338.440719 
L 105.219409 338.941839 
L 106.192685 339.43599 
L 107.16948 339.923148 
L 108.149744 340.403287 
L 109.133427 340.876383 
L 110.120478 341.342412 
L 111.110846 341.801348 
L 112.10448 342.25317 
L 113.101329 342.697853 
L 114.101343 343.135374 
L 115.104468 343.565712 
L 116.110655 343.988844 
L 117.11985 344.404748 
L 118.132003 344.813402 
L 119.147061 345.214787 
L 120.164971 345.608881 
L 121.185682 345.995663 
L 122.209141 346.375115 
L 123.235296 346.747216 
L 124.264092 347.111947 
L 125.295479 347.46929 
L 126.329401 347.819226 
L 127.365808 348.161737 
L 128.404644 348.496806 
L 129.445857 348.824415 
L 130.489392 349.144548 
L 131.535197 349.457187 
L 132.583218 349.762317 
L 133.6334 350.059923 
L 134.68569 350.349988 
L 135.740033 350.632499 
L 136.796376 350.90744 
L 137.854663 351.174797 
L 138.91484 351.434556 
L 139.976854 351.686705 
L 141.040649 351.93123 
L 142.10617 352.168119 
L 143.173363 352.397359 
L 144.242172 352.618939 
L 145.312544 352.832847 
L 146.384422 353.039072 
L 147.457752 353.237604 
L 148.532478 353.428432 
L 149.608545 353.611547 
L 150.685898 353.786938 
L 151.764481 353.954599 
L 152.84424 354.114518 
L 153.925117 354.266689 
L 155.007058 354.411104 
L 156.090007 354.547754 
L 157.173908 354.676633 
L 158.258706 354.797735 
L 159.344344 354.911053 
L 160.430767 355.016582 
L 161.517919 355.114315 
L 162.605745 355.204248 
L 163.694187 355.286376 
L 164.78319 355.360695 
L 165.872699 355.427202 
L 166.962656 355.485892 
L 168.053006 355.536763 
L 169.143694 355.579812 
L 170.234662 355.615037 
L 171.325854 355.642436 
L 172.417215 355.662008 
L 173.508688 355.673751 
L 174.600217 355.677666 
L 175.691747 355.673751 
L 176.78322 355.662008 
L 177.874581 355.642436 
L 178.965773 355.615037 
L 180.056741 355.579812 
L 181.147428 355.536763 
L 182.237779 355.485892 
L 183.327736 355.427202 
L 184.417245 355.360695 
L 185.506248 355.286376 
L 186.59469 355.204248 
L 187.682516 355.114315 
L 188.769668 355.016582 
L 189.856091 354.911053 
L 190.941729 354.797735 
L 192.026527 354.676633 
L 193.110428 354.547754 
L 194.193377 354.411104 
L 195.275318 354.266689 
L 196.356195 354.114518 
L 197.435953 353.954599 
L 198.514537 353.786938 
L 199.59189 353.611547 
L 200.667957 353.428432 
L 201.742683 353.237604 
L 202.816013 353.039072 
L 203.887891 352.832847 
L 204.958262 352.618939 
L 206.027072 352.397359 
L 207.094265 352.168119 
L 208.159786 351.93123 
L 209.223581 351.686705 
L 210.285594 351.434556 
L 211.345772 351.174797 
L 212.404059 350.90744 
L 213.460402 350.632499 
L 214.514745 350.349988 
L 215.567035 350.059923 
L 216.617217 349.762317 
L 217.665237 349.457187 
L 218.711043 349.144548 
L 219.754578 348.824415 
L 220.795791 348.496806 
L 221.834627 348.161737 
L 222.871033 347.819226 
L 223.904956 347.46929 
L 224.936343 347.111947 
L 225.965139 346.747216 
L 226.991294 346.375115 
L 228.014753 345.995663 
L 229.035464 345.608881 
L 230.053374 345.214787 
L 231.068432 344.813402 
L 232.080585 344.404748 
L 233.08978 343.988844 
L 234.095967 343.565712 
L 235.099092 343.135374 
L 236.099105 342.697853 
L 237.095955 342.25317 
L 238.089589 341.801348 
L 239.079957 341.342412 
L 240.067008 340.876383 
L 241.050691 340.403287 
L 242.030955 339.923148 
L 243.00775 339.43599 
L 243.981026 338.941839 
L 244.950733 338.440719 
L 245.91682 337.932657 
L 246.879238 337.417679 
L 247.837938 336.895811 
L 248.792871 336.36708 
L 249.743986 335.831514 
L 250.691235 335.289139 
L 251.63457 334.739984 
L 252.573942 334.184078 
L 253.509302 333.621447 
L 254.440603 333.052123 
L 255.367797 332.476133 
L 256.290835 331.893508 
L 257.20967 331.304277 
L 258.124256 330.708471 
L 259.034545 330.106121 
L 259.94049 329.497257 
L 260.842044 328.881911 
L 261.739162 328.260114 
L 262.631797 327.631898 
L 263.519903 326.997296 
L 264.403434 326.356341 
L 265.282346 325.709065 
L 266.156592 325.055501 
L 267.026128 324.395684 
L 267.890909 323.729647 
L 268.750891 323.057425 
L 269.606029 322.379051 
L 270.45628 321.694562 
L 271.301599 321.003991 
L 272.141943 320.307375 
L 272.977269 319.60475 
L 273.807534 318.896152 
L 274.632695 318.181617 
L 275.45271 317.461181 
L 276.267536 316.734883 
L 277.077132 316.002758 
L 277.881457 315.264846 
L 278.680467 314.521184 
L 279.474124 313.77181 
L 280.262384 313.016763 
L 281.04521 312.256081 
L 281.822558 311.489804 
L 282.594391 310.717971 
L 283.360668 309.940622 
L 284.12135 309.157797 
L 284.876397 308.369536 
L 285.625771 307.57588 
L 286.369433 306.776869 
L 287.107346 305.972545 
L 287.83947 305.162949 
L 288.565768 304.348123 
L 289.286204 303.528108 
L 290.000739 302.702947 
L 290.709338 301.872682 
L 291.411963 301.037356 
L 292.108578 300.197011 
L 292.799149 299.351692 
L 293.483638 298.501442 
L 294.162012 297.646304 
L 294.834234 296.786322 
L 295.500271 295.921541 
L 296.160088 295.052005 
L 296.813652 294.177759 
L 297.460928 293.298847 
L 298.101883 292.415316 
L 298.736485 291.52721 
L 299.364701 290.634575 
L 299.986498 289.737457 
L 300.601844 288.835903 
L 301.210708 287.929958 
L 301.813059 287.019669 
L 302.408865 286.105083 
L 302.998095 285.186248 
L 303.58072 284.263209 
L 304.15671 283.336016 
L 304.726035 282.404715 
L 305.288665 281.469355 
L 305.844572 280.529983 
L 306.393726 279.586648 
L 269.491544 258.281163 
L 269.096152 258.960364 
L 268.6959 259.636712 
L 268.290806 260.310171 
L 267.880892 260.980708 
L 267.46618 261.648287 
L 267.046689 262.312875 
L 266.622443 262.974436 
L 266.193463 263.632938 
L 265.759771 264.288346 
L 265.321389 264.940626 
L 264.878339 265.589746 
L 264.430645 266.23567 
L 263.97833 266.878368 
L 263.521417 267.517804 
L 263.059929 268.153946 
L 262.59389 268.786763 
L 262.123325 269.41622 
L 261.648256 270.042286 
L 261.16871 270.664928 
L 260.684709 271.284115 
L 260.19628 271.899815 
L 259.703448 272.511995 
L 259.206237 273.120625 
L 258.704674 273.725672 
L 258.198784 274.327107 
L 257.688593 274.924898 
L 257.174128 275.519014 
L 256.655414 276.109425 
L 256.132479 276.6961 
L 255.60535 277.279009 
L 255.074053 277.858122 
L 254.538616 278.43341 
L 253.999067 279.004843 
L 253.455433 279.572391 
L 252.907742 280.136025 
L 252.356023 280.695716 
L 251.800303 281.251435 
L 251.240612 281.803155 
L 250.676978 282.350846 
L 250.10943 282.89448 
L 249.537997 283.434029 
L 248.96271 283.969466 
L 248.383596 284.500763 
L 247.800687 285.027892 
L 247.214012 285.550827 
L 246.623601 286.06954 
L 246.029485 286.584006 
L 245.431694 287.094197 
L 244.83026 287.600087 
L 244.225212 288.10165 
L 243.616582 288.598861 
L 243.004402 289.091693 
L 242.388702 289.580122 
L 241.769516 290.064122 
L 241.146873 290.543669 
L 240.520807 291.018737 
L 239.89135 291.489303 
L 239.258534 291.955342 
L 238.622391 292.41683 
L 237.982955 292.873743 
L 237.340258 293.326058 
L 236.694333 293.773752 
L 236.045214 294.216801 
L 235.392933 294.655184 
L 234.737525 295.088876 
L 234.079024 295.517856 
L 233.417462 295.942102 
L 232.752874 296.361592 
L 232.085295 296.776305 
L 231.414759 297.186219 
L 230.741299 297.591312 
L 230.064951 297.991565 
L 229.38575 298.386957 
L 228.703731 298.777466 
L 228.018928 299.163074 
L 227.331377 299.54376 
L 226.641113 299.919505 
L 225.948171 300.29029 
L 225.252588 300.656094 
L 224.5544 301.0169 
L 223.853641 301.372689 
L 223.150349 301.723443 
L 222.444558 302.069143 
L 221.736307 302.409773 
L 221.02563 302.745313 
L 220.312565 303.075747 
L 219.597148 303.401059 
L 218.879417 303.72123 
L 218.159407 304.036246 
L 217.437157 304.346089 
L 216.712703 304.650744 
L 215.986082 304.950195 
L 215.257332 305.244426 
L 214.52649 305.533423 
L 213.793595 305.817171 
L 213.058683 306.095654 
L 212.321792 306.368859 
L 211.582961 306.636772 
L 210.842228 306.899378 
L 210.099629 307.156665 
L 209.355205 307.408619 
L 208.608993 307.655227 
L 207.86103 307.896477 
L 207.111357 308.132355 
L 206.360012 308.362851 
L 205.607032 308.587951 
L 204.852457 308.807645 
L 204.096326 309.021921 
L 203.338677 309.230768 
L 202.57955 309.434176 
L 201.818984 309.632133 
L 201.057017 309.82463 
L 200.293689 310.011657 
L 199.529039 310.193204 
L 198.763107 310.369262 
L 197.995932 310.539822 
L 197.227553 310.704875 
L 196.45801 310.864412 
L 195.687342 311.018426 
L 194.91559 311.166908 
L 194.142793 311.309851 
L 193.36899 311.447247 
L 192.594221 311.57909 
L 191.818527 311.705372 
L 191.041947 311.826087 
L 190.264522 311.94123 
L 189.48629 312.050793 
L 188.707292 312.154771 
L 187.927569 312.253159 
L 187.14716 312.345953 
L 186.366106 312.433146 
L 185.584446 312.514735 
L 184.802222 312.590715 
L 184.019472 312.661083 
L 183.236238 312.725835 
L 182.452559 312.784967 
L 181.668477 312.838477 
L 180.884031 312.886362 
L 180.099262 312.928619 
L 179.314209 312.965246 
L 178.528915 312.996241 
L 177.743418 313.021603 
L 176.957759 313.04133 
L 176.171979 313.055422 
L 175.386119 313.063877 
L 174.600217 313.066696 
L 173.814316 313.063877 
L 173.028456 313.055422 
L 172.242676 313.04133 
L 171.457017 313.021603 
L 170.67152 312.996241 
L 169.886226 312.965246 
L 169.101173 312.928619 
L 168.316404 312.886362 
L 167.531958 312.838477 
L 166.747875 312.784967 
L 165.964197 312.725835 
L 165.180963 312.661083 
L 164.398213 312.590715 
L 163.615989 312.514735 
L 162.834329 312.433146 
L 162.053275 312.345953 
L 161.272866 312.253159 
L 160.493142 312.154771 
L 159.714145 312.050793 
L 158.935913 311.94123 
L 158.158488 311.826087 
L 157.381908 311.705372 
L 156.606214 311.57909 
L 155.831445 311.447247 
L 155.057642 311.309851 
L 154.284845 311.166908 
L 153.513093 311.018426 
L 152.742425 310.864412 
L 151.972882 310.704875 
L 151.204503 310.539822 
L 150.437328 310.369262 
L 149.671396 310.193204 
L 148.906746 310.011657 
L 148.143418 309.82463 
L 147.381451 309.632133 
L 146.620885 309.434176 
L 145.861758 309.230768 
L 145.104109 309.021921 
L 144.347978 308.807645 
L 143.593403 308.587951 
L 142.840423 308.362851 
L 142.089078 308.132355 
L 141.339404 307.896477 
L 140.591442 307.655227 
L 139.84523 307.408619 
L 139.100806 307.156665 
L 138.358207 306.899378 
L 137.617474 306.636772 
L 136.878643 306.368859 
L 136.141752 306.095654 
L 135.40684 305.817171 
L 134.673945 305.533423 
L 133.943103 305.244426 
L 133.214353 304.950195 
L 132.487732 304.650744 
L 131.763278 304.346089 
L 131.041028 304.036246 
L 130.321018 303.72123 
L 129.603287 303.401059 
L 128.88787 303.075747 
L 128.174805 302.745313 
L 127.464128 302.409773 
L 126.755877 302.069143 
L 126.050086 301.723443 
L 125.346794 301.372689 
L 124.646035 301.0169 
L 123.947846 300.656094 
L 123.252264 300.29029 
L 122.559322 299.919505 
L 121.869058 299.54376 
L 121.181507 299.163074 
L 120.496704 298.777466 
L 119.814685 298.386957 
z
" clip-path="url(#p3189ff816c)" style="fill: #fbbf24"/>
   </g>
   <g id="patch_4">
    <path d="M 306.393726 279.586648 
L 306.756064 278.95558 
L 307.115381 278.322787 
L 307.471667 277.688283 
L 307.824916 277.052083 
L 308.175118 276.414201 
L 308.522266 275.774651 
L 308.866352 275.133449 
L 309.207368 274.490609 
L 309.545306 273.846146 
L 309.880159 273.200074 
L 310.211919 272.552408 
L 310.540577 271.903163 
L 310.866128 271.252354 
L 311.188563 270.599996 
L 311.507875 269.946104 
L 311.824056 269.290692 
L 312.1371 268.633776 
L 312.446999 267.97537 
L 312.753746 267.31549 
L 313.057334 266.654151 
L 313.357757 265.991368 
L 313.655007 265.327156 
L 313.949077 264.66153 
L 314.239962 263.994505 
L 314.527653 263.326097 
L 314.812145 262.656321 
L 315.093431 261.985193 
L 315.371505 261.312727 
L 315.64636 260.638939 
L 315.91799 259.963845 
L 316.186388 259.287459 
L 316.45155 258.609798 
L 316.713468 257.930876 
L 316.972137 257.25071 
L 317.22755 256.569315 
L 317.479702 255.886706 
L 317.728587 255.2029 
L 317.9742 254.517911 
L 318.216534 253.831755 
L 318.455585 253.144449 
L 318.691346 252.456007 
L 318.923813 251.766446 
L 319.15298 251.075781 
L 319.378842 250.384029 
L 319.601393 249.691204 
L 319.820629 248.997323 
L 320.036545 248.302401 
L 320.249135 247.606455 
L 320.458395 246.909501 
L 320.664319 246.211554 
L 320.866905 245.51263 
L 321.066145 244.812745 
L 321.262037 244.111916 
L 321.454576 243.410158 
L 321.643756 242.707487 
L 321.829575 242.00392 
L 322.012027 241.299472 
L 322.191108 240.59416 
L 322.366815 239.888 
L 322.539144 239.181007 
L 322.708089 238.473199 
L 322.873648 237.764591 
L 323.035817 237.055199 
L 323.194592 236.34504 
L 323.34997 235.63413 
L 323.501946 234.922485 
L 323.650518 234.210121 
L 323.795681 233.497056 
L 323.937434 232.783304 
L 324.075771 232.068882 
L 324.210691 231.353808 
L 324.342191 230.638096 
L 324.470266 229.921763 
L 324.594915 229.204827 
L 324.716134 228.487302 
L 324.83392 227.769207 
L 324.948272 227.050556 
L 325.059186 226.331366 
L 325.166659 225.611655 
L 325.27069 224.891437 
L 325.371276 224.170731 
L 325.468415 223.449552 
L 325.562104 222.727916 
L 325.652341 222.005841 
L 325.739125 221.283343 
L 325.822452 220.560438 
L 325.902322 219.837142 
L 325.978733 219.113473 
L 326.051682 218.389447 
L 326.121169 217.665081 
L 326.187191 216.94039 
L 326.249746 216.215392 
L 326.308835 215.490103 
L 326.364455 214.76454 
L 326.416604 214.038719 
L 326.465282 213.312657 
L 326.510488 212.586371 
L 326.552221 211.859877 
L 326.590479 211.133192 
L 326.625262 210.406332 
L 326.656569 209.679314 
L 326.684399 208.952154 
L 326.708752 208.22487 
L 326.729627 207.497478 
L 326.747023 206.769994 
L 326.760941 206.042435 
L 326.771379 205.314818 
L 326.778339 204.58716 
L 326.781818 203.859476 
L 326.781818 203.131784 
L 326.778339 202.404101 
L 326.771379 201.676442 
L 326.760941 200.948825 
L 326.747023 200.221267 
L 326.729627 199.493783 
L 326.708752 198.766391 
L 326.684399 198.039106 
L 326.656569 197.311947 
L 326.625262 196.584929 
L 326.590479 195.858069 
L 326.552221 195.131384 
L 326.510488 194.404889 
L 326.465282 193.678603 
L 326.416604 192.952541 
L 326.364455 192.226721 
L 326.308835 191.501157 
L 326.249746 190.775869 
L 326.187191 190.050871 
L 326.121169 189.32618 
L 326.051682 188.601813 
L 325.978733 187.877787 
L 325.902322 187.154118 
L 325.822452 186.430823 
L 325.739125 185.707918 
L 325.652341 184.985419 
L 325.562104 184.263344 
L 325.468415 183.541709 
L 325.371276 182.82053 
L 325.27069 182.099823 
L 325.166659 181.379606 
L 325.059186 180.659894 
L 324.948272 179.940705 
L 324.83392 179.222054 
L 324.716134 178.503958 
L 324.594915 177.786434 
L 324.470266 177.069497 
L 324.342191 176.353165 
L 324.210691 175.637453 
L 324.075771 174.922378 
L 323.937434 174.207957 
L 323.795681 173.494205 
L 323.650518 172.781139 
L 323.501946 172.068776 
L 323.34997 171.357131 
L 323.194592 170.646221 
L 323.035817 169.936062 
L 322.873648 169.22667 
L 322.708089 168.518062 
L 322.539144 167.810253 
L 322.366815 167.103261 
L 322.191108 166.3971 
L 322.012027 165.691788 
L 321.829575 164.987341 
L 321.643756 164.283773 
L 321.454576 163.581103 
L 321.262037 162.879345 
L 321.066145 162.178516 
L 320.866905 161.478631 
L 320.664319 160.779707 
L 320.458395 160.08176 
L 320.249135 159.384805 
L 320.036545 158.688859 
L 319.820629 157.993938 
L 319.601393 157.300057 
L 319.378842 156.607232 
L 319.15298 155.915479 
L 318.923813 155.224814 
L 318.691346 154.535253 
L 318.455585 153.846812 
L 318.216534 153.159505 
L 317.9742 152.47335 
L 317.728587 151.788361 
L 317.479702 151.104554 
L 317.22755 150.421945 
L 316.972137 149.74055 
L 316.713468 149.060384 
L 316.45155 148.381463 
L 316.186388 147.703801 
L 315.91799 147.027416 
L 315.64636 146.352321 
L 315.371505 145.678534 
L 315.093431 145.006068 
L 314.812145 144.334939 
L 314.527653 143.665163 
L 314.239962 142.996756 
L 313.949077 142.329731 
L 313.655007 141.664105 
L 313.357757 140.999893 
L 313.057334 140.33711 
L 312.753746 139.67577 
L 312.446999 139.015891 
L 312.1371 138.357485 
L 311.824056 137.700569 
L 311.507875 137.045157 
L 311.188563 136.391264 
L 310.866128 135.738906 
L 310.540577 135.088098 
L 310.211919 134.438853 
L 309.880159 133.791187 
L 309.545306 133.145115 
L 309.207368 132.500652 
L 308.866352 131.857811 
L 308.522266 131.216609 
L 308.175118 130.57706 
L 307.824916 129.939178 
L 307.471667 129.302977 
L 307.115381 128.668473 
L 306.756064 128.03568 
L 306.393726 127.404612 
L 269.491544 148.710097 
L 269.752427 149.164466 
L 270.011135 149.620077 
L 270.267661 150.07692 
L 270.522 150.534984 
L 270.774146 150.99426 
L 271.024092 151.454735 
L 271.271834 151.916401 
L 271.517366 152.379246 
L 271.760681 152.843259 
L 272.001775 153.308431 
L 272.240642 153.77475 
L 272.477277 154.242207 
L 272.711673 154.710789 
L 272.943826 155.180487 
L 273.173731 155.651289 
L 273.401381 156.123186 
L 273.626773 156.596166 
L 273.8499 157.070218 
L 274.070758 157.545331 
L 274.289342 158.021495 
L 274.505646 158.498699 
L 274.719666 158.976932 
L 274.931397 159.456183 
L 275.140833 159.93644 
L 275.347971 160.417694 
L 275.552805 160.899933 
L 275.755331 161.383145 
L 275.955544 161.867321 
L 276.15344 162.352448 
L 276.349013 162.838516 
L 276.542261 163.325514 
L 276.733177 163.81343 
L 276.921758 164.302253 
L 277.107999 164.791973 
L 277.291897 165.282577 
L 277.473446 165.774055 
L 277.652644 166.266396 
L 277.829485 166.759588 
L 278.003966 167.25362 
L 278.176082 167.748481 
L 278.34583 168.244159 
L 278.513206 168.740643 
L 278.678207 169.237921 
L 278.840827 169.735983 
L 279.001064 170.234817 
L 279.158914 170.734412 
L 279.314373 171.234755 
L 279.467438 171.735836 
L 279.618105 172.237644 
L 279.766371 172.740166 
L 279.912232 173.243391 
L 280.055685 173.747308 
L 280.196728 174.251905 
L 280.335355 174.757171 
L 280.471565 175.263093 
L 280.605355 175.769662 
L 280.73672 176.276864 
L 280.865659 176.784689 
L 280.992168 177.293124 
L 281.116244 177.802159 
L 281.237885 178.311781 
L 281.357088 178.821979 
L 281.473849 179.332741 
L 281.588167 179.844055 
L 281.700039 180.355911 
L 281.809462 180.868295 
L 281.916434 181.381197 
L 282.020952 181.894604 
L 282.123013 182.408505 
L 282.222616 182.922889 
L 282.319759 183.437743 
L 282.414438 183.953055 
L 282.506652 184.468814 
L 282.596399 184.985009 
L 282.683677 185.501626 
L 282.768484 186.018655 
L 282.850817 186.536084 
L 282.930675 187.0539 
L 283.008056 187.572093 
L 283.082958 188.090649 
L 283.15538 188.609558 
L 283.22532 189.128807 
L 283.292776 189.648384 
L 283.357747 190.168279 
L 283.420231 190.688477 
L 283.480227 191.208969 
L 283.537733 191.729742 
L 283.592749 192.250783 
L 283.645272 192.772082 
L 283.695302 193.293626 
L 283.742838 193.815403 
L 283.787878 194.337402 
L 283.830422 194.85961 
L 283.870468 195.382015 
L 283.908016 195.904606 
L 283.943064 196.427371 
L 283.975613 196.950297 
L 284.00566 197.473373 
L 284.033206 197.996586 
L 284.05825 198.519925 
L 284.080791 199.043378 
L 284.100828 199.566933 
L 284.118362 200.090578 
L 284.133392 200.6143 
L 284.145918 201.138089 
L 284.155938 201.661931 
L 284.163454 202.185815 
L 284.168465 202.709729 
L 284.17097 203.233661 
L 284.17097 203.757599 
L 284.168465 204.281531 
L 284.163454 204.805446 
L 284.155938 205.32933 
L 284.145918 205.853172 
L 284.133392 206.37696 
L 284.118362 206.900683 
L 284.100828 207.424327 
L 284.080791 207.947882 
L 284.05825 208.471335 
L 284.033206 208.994674 
L 284.00566 209.517888 
L 283.975613 210.040964 
L 283.943064 210.56389 
L 283.908016 211.086654 
L 283.870468 211.609245 
L 283.830422 212.131651 
L 283.787878 212.653859 
L 283.742838 213.175857 
L 283.695302 213.697634 
L 283.645272 214.219178 
L 283.592749 214.740477 
L 283.537733 215.261519 
L 283.480227 215.782292 
L 283.420231 216.302783 
L 283.357747 216.822982 
L 283.292776 217.342876 
L 283.22532 217.862454 
L 283.15538 218.381703 
L 283.082958 218.900611 
L 283.008056 219.419168 
L 282.930675 219.93736 
L 282.850817 220.455177 
L 282.768484 220.972605 
L 282.683677 221.489634 
L 282.596399 222.006252 
L 282.506652 222.522446 
L 282.414438 223.038205 
L 282.319759 223.553518 
L 282.222616 224.068372 
L 282.123013 224.582755 
L 282.020952 225.096657 
L 281.916434 225.610064 
L 281.809462 226.122966 
L 281.700039 226.63535 
L 281.588167 227.147205 
L 281.473849 227.65852 
L 281.357088 228.169282 
L 281.237885 228.67948 
L 281.116244 229.189102 
L 280.992168 229.698136 
L 280.865659 230.206572 
L 280.73672 230.714396 
L 280.605355 231.221599 
L 280.471565 231.728167 
L 280.335355 232.23409 
L 280.196728 232.739356 
L 280.055685 233.243953 
L 279.912232 233.74787 
L 279.766371 234.251095 
L 279.618105 234.753617 
L 279.467438 235.255424 
L 279.314373 235.756505 
L 279.158914 236.256849 
L 279.001064 236.756443 
L 278.840827 237.255277 
L 278.678207 237.753339 
L 278.513206 238.250618 
L 278.34583 238.747102 
L 278.176082 239.24278 
L 278.003966 239.73764 
L 277.829485 240.231672 
L 277.652644 240.724864 
L 277.473446 241.217205 
L 277.291897 241.708683 
L 277.107999 242.199288 
L 276.921758 242.689008 
L 276.733177 243.177831 
L 276.542261 243.665747 
L 276.349013 244.152745 
L 276.15344 244.638813 
L 275.955544 245.12394 
L 275.755331 245.608115 
L 275.552805 246.091328 
L 275.347971 246.573566 
L 275.140833 247.05482 
L 274.931397 247.535078 
L 274.719666 248.014328 
L 274.505646 248.492561 
L 274.289342 248.969765 
L 274.070758 249.445929 
L 273.8499 249.921043 
L 273.626773 250.395095 
L 273.401381 250.868075 
L 273.173731 251.339971 
L 272.943826 251.810774 
L 272.711673 252.280472 
L 272.477277 252.749054 
L 272.240642 253.21651 
L 272.001775 253.682829 
L 271.760681 254.148001 
L 271.517366 254.612015 
L 271.271834 255.07486 
L 271.024092 255.536525 
L 270.774146 255.997001 
L 270.522 256.456276 
L 270.267661 256.914341 
L 270.011135 257.371183 
L 269.752427 257.826794 
L 269.491544 258.281163 
z
" clip-path="url(#p3189ff816c)" style="fill: #34d399"/>
   </g>
   <g id="patch_5">
    <path d="M 174.600217 211.104732 
C 176.618175 211.104732 178.553754 210.302989 179.980665 208.876078 
C 181.407576 207.449166 182.209319 205.513588 182.209319 203.49563 
C 182.209319 201.477673 181.407576 199.542094 179.980665 198.115183 
C 178.553754 196.688271 176.618175 195.886529 174.600217 195.886529 
C 172.58226 195.886529 170.646681 196.688271 169.21977 198.115183 
C 167.792859 199.542094 166.991116 201.477673 166.991116 203.49563 
C 166.991116 205.513588 167.792859 207.449166 169.21977 208.876078 
C 170.646681 210.302989 172.58226 211.104732 174.600217 211.104732 
z
" clip-path="url(#p3189ff816c)" style="stroke: #000000; stroke-linejoin: miter"/>
   </g>
   <g id="line2d_1">
    <path d="M 174.600217 203.49563 
L 298.675341 138.630723 
" clip-path="url(#p3189ff816c)" style="fill: none; stroke: #000000; stroke-width: 3; stroke-linecap: square"/>
   </g>
   <g id="text_1">
    <text style="font: 700 9px 'DejaVu Sans', 'Bitstream Vera Sans', 'Computer Modern Sans Serif', 'Lucida Grande', 'Verdana', 'Geneva', 'Lucid', 'Arial', 'Helvetica', 'Avant Garde', sans-serif; text-anchor: middle" x="36.217033" y="126.083499" transform="rotate(-0 36.217033 126.083499)">0</text>
   </g>
   <g id="text_2">
    <text style="font: 700 9px 'DejaVu Sans', 'Bitstream Vera Sans', 'Computer Modern Sans Serif', 'Lucida Grande', 'Verdana', 'Geneva', 'Lucid', 'Arial', 'Helvetica', 'Avant Garde', sans-serif; text-anchor: middle" x="36.217033" y="285.874637" transform="rotate(-0 36.217033 285.874637)">25</text>
   </g>
   <g id="text_3">
    <text style="font: 700 9px 'DejaVu Sans', 'Bitstream Vera Sans', 'Computer Modern Sans Serif', 'Lucida Grande', 'Verdana', 'Geneva', 'Lucid', 'Arial', 'Helvetica', 'Avant Garde', sans-serif; text-anchor: middle" x="174.600217" y="365.770205" transform="rotate(-0 174.600217 365.770205)">50</text>
   </g>
   <g id="text_4">
    <text style="font: 700 9px 'DejaVu Sans', 'Bitstream Vera Sans', 'Computer Modern Sans Serif', 'Lucida Grande', 'Verdana', 'Geneva', 'Lucid', 'Arial', 'Helvetica', 'Avant Garde', sans-serif; text-anchor: middle" x="312.983402" y="285.874637" transform="rotate(-0 312.983402 285.874637)">75</text>
   </g>
   <g id="text_5">
    <text style="font: 700 9px 'DejaVu Sans', 'Bitstream Vera Sans', 'Computer Modern Sans Serif', 'Lucida Grande', 'Verdana', 'Geneva', 'Lucid', 'Arial', 'Helvetica', 'Avant Garde', sans-serif; text-anchor: middle" x="333.516002" y="189.276346" transform="rotate(-0 333.516002 189.276346)">90</text>
   </g>
   <g id="text_6">
    <text style="font: 700 9px 'DejaVu Sans', 'Bitstream Vera Sans', 'Computer Modern Sans Serif', 'Lucida Grande', 'Verdana', 'Geneva', 'Lucid', 'Arial', 'Helvetica', 'Avant Garde', sans-serif; text-anchor: middle" x="326.57062" y="156.600891" transform="rotate(-0 326.57062 156.600891)">95</text>
   </g>
   <g id="text_7">
    <text style="font: 700 9px 'DejaVu Sans', 'Bitstream Vera Sans', 'Computer Modern Sans Serif', 'Lucida Grande', 'Verdana', 'Geneva', 'Lucid', 'Arial', 'Helvetica', 'Avant Garde', sans-serif; text-anchor: middle" x="312.983402" y="126.083499" transform="rotate(-0 312.983402 126.083499)">100</text>
   </g>
   <g id="text_8">
    <text style="fill: #333333; font: 700 18px 'DejaVu Sans', 'Bitstream Vera Sans', 'Computer Modern Sans Serif', 'Lucida Grande', 'Verdana', 'Geneva', 'Lucid', 'Arial', 'Helvetica', 'Avant Garde', sans-serif; text-anchor: middle" x="174.600217" y="20.877187" transform="rotate(-0 174.600217 20.877187)">Trust Dial</text>
   </g>
   <g id="text_9">
    <text style="fill: #333333; font: 12px 'DejaVu Sans', 'Bitstream Vera Sans', 'Computer Modern Sans Serif', 'Lucida Grande', 'Verdana', 'Geneva', 'Lucid', 'Arial', 'Helvetica', 'Avant Garde', sans-serif; text-anchor: middle" x="174.600217" y="43.704493" transform="rotate(-0 174.600217 43.704493)">Goal: Near-100% auto-approve</text>
   </g>
   <g id="text_10">
    <text style="fill: #374151; font: 10px 'DejaVu Sans', 'Bitstream Vera Sans', 'Computer Modern Sans Serif', 'Lucida Grande', 'Verdana', 'Geneva', 'Lucid', 'Arial', 'Helvetica', 'Avant Garde', sans-serif; text-anchor: middle" x="174.600217" y="249.150241" transform="rotate(-0 174.600217 249.150241)">Human checks shrink as trust rises</text>
   </g>
  </g>
 </g>
 <defs>
  <clipPath id="p3189ff816c">
   <rect x="7.2" y="115.99096" width="334.8" height="251.100359"/>
  </clipPath>
 </defs>
</svg>
